<svg xmlns="http://www.w3.org/2000/svg" xmlns:xlink="http://www.w3.org/1999/xlink" width="2000" zoomAndPan="magnify" viewBox="0 0 1500 1499.999933" height="2000" preserveAspectRatio="xMidYMid meet" version="1.0"><defs><clipPath id="d52954186c"><path d="M 585.078125 460.816406 L 915 460.816406 L 915 845.566406 L 585.078125 845.566406 Z M 585.078125 460.816406 " clip-rule="nonzero"/></clipPath><clipPath id="833cf7b37b"><path d="M 585.71875 460.816406 L 915 460.816406 L 915 845.566406 L 585.71875 845.566406 Z M 585.71875 460.816406 " clip-rule="nonzero"/></clipPath><clipPath id="b1b967e867"><path d="M 871.34375 687.785156 L 859.179688 675.621094 L 871.34375 663.457031 L 883.507812 675.621094 Z M 764.972656 698.078125 L 746.375 679.464844 L 722.851562 679.464844 L 704.203125 698.113281 L 681.796875 675.621094 L 704.289062 653.128906 L 722.851562 671.847656 L 746.375 671.847656 L 765.007812 653.195312 L 787.5 675.6875 Z M 821.503906 692.109375 L 804.964844 675.585938 L 821.503906 659.046875 L 838.027344 675.585938 Z M 731.414062 845.4375 L 743.5625 833.273438 L 731.414062 821.109375 L 719.25 833.273438 Z M 597.882812 793.246094 L 610.046875 781.082031 L 597.882812 768.9375 L 585.71875 781.082031 Z M 704.253906 803.542969 L 722.902344 784.894531 L 746.375 784.894531 L 765.007812 803.542969 L 783.65625 784.894531 L 807.179688 784.894531 L 825.8125 803.542969 L 848.304688 781.050781 L 825.8125 758.558594 L 807.179688 777.207031 L 783.65625 777.207031 L 765.007812 758.589844 L 746.375 777.242188 L 722.851562 777.242188 L 704.203125 758.589844 L 681.796875 781.082031 Z M 647.738281 797.589844 L 664.261719 781.050781 L 647.6875 764.492188 L 631.167969 781.015625 Z M 792.269531 750.527344 L 769.777344 728.050781 L 792.269531 705.558594 L 810.917969 724.207031 L 836.105469 724.207031 L 848.785156 711.511719 L 865.304688 728.050781 L 848.785156 744.574219 L 836.105469 731.878906 L 810.867188 731.878906 Z M 898.640625 740.234375 L 886.476562 728.070312 L 898.640625 715.90625 L 910.789062 728.070312 Z M 628.609375 618.472656 L 640.84375 630.667969 L 628.609375 642.800781 L 616.601562 630.667969 Z M 734.980469 608.175781 L 753.648438 626.792969 L 777.171875 626.792969 L 795.804688 608.144531 L 818.3125 630.667969 L 795.804688 653.164062 L 777.171875 634.511719 L 753.648438 634.511719 L 734.980469 653.128906 L 712.523438 630.667969 Z M 678.484375 614.113281 L 695.007812 630.667969 L 678.484375 647.191406 L 661.964844 630.667969 Z M 768.609375 460.816406 L 756.445312 472.980469 L 768.609375 485.144531 L 780.757812 472.980469 Z M 902.140625 513.007812 L 889.976562 525.171875 L 902.140625 537.320312 L 914.304688 525.171875 Z M 795.769531 502.714844 L 777.171875 521.328125 L 753.648438 521.328125 L 734.980469 502.679688 L 716.367188 521.328125 L 692.84375 521.328125 L 674.214844 502.679688 L 651.71875 525.171875 L 674.214844 547.648438 L 692.84375 529.015625 L 716.367188 529.015625 L 734.980469 547.648438 L 753.648438 529.015625 L 777.171875 529.015625 L 795.804688 547.648438 L 818.3125 525.171875 Z M 852.386719 508.683594 L 835.863281 525.207031 L 852.386719 541.730469 L 868.804688 525.171875 Z M 707.804688 555.675781 L 730.296875 578.167969 L 707.804688 600.664062 L 689.15625 582.011719 L 663.96875 582.011719 L 651.292969 594.640625 L 634.753906 578.167969 L 651.292969 561.648438 L 663.96875 574.328125 L 689.15625 574.328125 Z M 601.433594 565.972656 L 613.597656 578.117188 L 601.46875 590.335938 L 589.320312 578.167969 Z M 601.433594 565.972656 " clip-rule="evenodd"/></clipPath></defs><g clip-path="url(#d52954186c)"><path fill="#ffffff" d="M 871.34375 687.785156 L 859.179688 675.621094 L 871.34375 663.457031 L 883.507812 675.621094 Z M 764.972656 698.078125 L 746.375 679.464844 L 722.851562 679.464844 L 704.203125 698.113281 L 681.796875 675.621094 L 704.289062 653.128906 L 722.851562 671.847656 L 746.375 671.847656 L 765.007812 653.195312 L 787.5 675.6875 Z M 821.503906 692.109375 L 804.964844 675.585938 L 821.503906 659.046875 L 838.027344 675.585938 Z M 731.414062 845.4375 L 743.5625 833.273438 L 731.414062 821.109375 L 719.25 833.273438 Z M 597.882812 793.246094 L 610.046875 781.082031 L 597.882812 768.9375 L 585.71875 781.082031 Z M 704.253906 803.542969 L 722.902344 784.894531 L 746.375 784.894531 L 765.007812 803.542969 L 783.65625 784.894531 L 807.179688 784.894531 L 825.8125 803.542969 L 848.304688 781.050781 L 825.8125 758.558594 L 807.179688 777.207031 L 783.65625 777.207031 L 765.007812 758.589844 L 746.375 777.242188 L 722.851562 777.242188 L 704.203125 758.589844 L 681.796875 781.082031 Z M 647.738281 797.589844 L 664.261719 781.050781 L 647.6875 764.492188 L 631.167969 781.015625 Z M 792.269531 750.527344 L 769.777344 728.050781 L 792.269531 705.558594 L 810.917969 724.207031 L 836.105469 724.207031 L 848.785156 711.511719 L 865.304688 728.050781 L 848.785156 744.574219 L 836.105469 731.878906 L 810.867188 731.878906 Z M 898.640625 740.234375 L 886.476562 728.070312 L 898.640625 715.90625 L 910.789062 728.070312 Z M 628.609375 618.472656 L 640.84375 630.667969 L 628.609375 642.800781 L 616.601562 630.667969 Z M 734.980469 608.175781 L 753.648438 626.792969 L 777.171875 626.792969 L 795.804688 608.144531 L 818.3125 630.667969 L 795.804688 653.164062 L 777.171875 634.511719 L 753.648438 634.511719 L 734.980469 653.128906 L 712.523438 630.667969 Z M 678.484375 614.113281 L 695.007812 630.667969 L 678.484375 647.191406 L 661.964844 630.667969 Z M 768.609375 460.816406 L 756.445312 472.980469 L 768.609375 485.144531 L 780.757812 472.980469 Z M 902.140625 513.007812 L 889.976562 525.171875 L 902.140625 537.320312 L 914.304688 525.171875 Z M 795.769531 502.714844 L 777.171875 521.328125 L 753.648438 521.328125 L 734.980469 502.679688 L 716.367188 521.328125 L 692.84375 521.328125 L 674.214844 502.679688 L 651.71875 525.171875 L 674.214844 547.648438 L 692.84375 529.015625 L 716.367188 529.015625 L 734.980469 547.648438 L 753.648438 529.015625 L 777.171875 529.015625 L 795.804688 547.648438 L 818.3125 525.171875 Z M 852.386719 508.683594 L 835.863281 525.207031 L 852.386719 541.730469 L 868.804688 525.171875 Z M 707.804688 555.675781 L 730.296875 578.167969 L 707.804688 600.664062 L 689.15625 582.011719 L 663.96875 582.011719 L 651.292969 594.640625 L 634.753906 578.167969 L 651.292969 561.648438 L 663.96875 574.328125 L 689.15625 574.328125 Z M 601.433594 565.972656 L 613.597656 578.117188 L 601.46875 590.335938 L 589.320312 578.167969 Z M 601.433594 565.972656 " fill-opacity="1" fill-rule="evenodd"/></g><g clip-path="url(#833cf7b37b)"><g clip-path="url(#b1b967e867)"><path fill="#ffffff" d="M 585.71875 460.816406 L 914.304688 460.816406 L 914.304688 845.4375 L 585.71875 845.4375 Z M 585.71875 460.816406 " fill-opacity="1" fill-rule="nonzero"/></g></g></svg>