<svg xmlns="http://www.w3.org/2000/svg" xmlns:xlink="http://www.w3.org/1999/xlink" width="793" viewBox="354 876 793 153" height="153" preserveAspectRatio="xMidYMid meet" version="1.0"><defs><g/><clipPath id="e838215d7e"><rect x="0" width="793" y="0" height="153"/></clipPath></defs><g transform="matrix(1, 0, 0, 1, 354, 876)"><g clip-path="url(#e838215d7e)"><g fill="#ffffff" fill-opacity="1"><g transform="translate(0.31264, 122.6966)"><g><path d="M 30.4375 -81.171875 L 30.4375 -60.875 L 10.140625 -60.875 L 10.140625 -81.171875 Z M 10.140625 0 L 10.140625 -20.296875 L 91.3125 -20.296875 L 91.3125 0 Z M 30.4375 -40.578125 L 30.4375 -60.875 L 91.3125 -60.875 L 91.3125 -40.578125 Z M 30.4375 -81.171875 L 30.4375 -101.453125 L 111.609375 -101.453125 L 111.609375 -81.171875 Z M 91.3125 -20.296875 L 91.3125 -40.578125 L 111.609375 -40.578125 L 111.609375 -20.296875 Z M 91.3125 -20.296875 "/></g></g></g><g fill="#ffffff" fill-opacity="1"><g transform="translate(122.059415, 122.6966)"><g><path d="M 10.140625 0 L 10.140625 -20.296875 L 30.4375 -20.296875 L 30.4375 -81.171875 L 10.140625 -81.171875 L 10.140625 -101.453125 L 71.015625 -101.453125 L 71.015625 -81.171875 L 50.734375 -81.171875 L 50.734375 -20.296875 L 71.015625 -20.296875 L 71.015625 0 Z M 10.140625 0 "/></g></g></g><g fill="#ffffff" fill-opacity="1"><g transform="translate(203.223938, 122.6966)"><g><path d="M 10.140625 0 L 10.140625 -101.453125 L 91.3125 -101.453125 L 91.3125 -81.171875 L 30.4375 -81.171875 L 30.4375 -20.296875 L 91.3125 -20.296875 L 91.3125 0 Z M 91.3125 -20.296875 L 91.3125 -81.171875 L 111.609375 -81.171875 L 111.609375 -20.296875 Z M 91.3125 -20.296875 "/></g></g></g><g fill="#ffffff" fill-opacity="1"><g transform="translate(324.970714, 122.6966)"><g><path d="M 10.140625 0 L 10.140625 -101.453125 L 30.4375 -101.453125 L 30.4375 -60.875 L 91.3125 -60.875 L 91.3125 -101.453125 L 111.609375 -101.453125 L 111.609375 0 L 91.3125 0 L 91.3125 -40.578125 L 30.4375 -40.578125 L 30.4375 0 Z M 10.140625 0 "/></g></g></g><g fill="#ffffff" fill-opacity="1"><g transform="translate(446.717511, 122.6966)"><g><path d="M 10.140625 0 L 10.140625 -20.296875 L 30.4375 -20.296875 L 30.4375 -81.171875 L 10.140625 -81.171875 L 10.140625 -101.453125 L 71.015625 -101.453125 L 71.015625 -81.171875 L 50.734375 -81.171875 L 50.734375 -20.296875 L 71.015625 -20.296875 L 71.015625 0 Z M 10.140625 0 "/></g></g></g><g fill="#ffffff" fill-opacity="1"><g transform="translate(527.882012, 122.6966)"><g/></g></g><g fill="#ffffff" fill-opacity="1"><g transform="translate(588.755398, 122.6966)"><g><path d="M 10.140625 0 L 10.140625 -81.171875 L 30.4375 -81.171875 L 30.4375 -40.578125 L 91.3125 -40.578125 L 91.3125 -81.171875 L 111.609375 -81.171875 L 111.609375 0 L 91.3125 0 L 91.3125 -20.296875 L 30.4375 -20.296875 L 30.4375 0 Z M 30.4375 -81.171875 L 30.4375 -101.453125 L 91.3125 -101.453125 L 91.3125 -81.171875 Z M 30.4375 -81.171875 "/></g></g></g><g fill="#ffffff" fill-opacity="1"><g transform="translate(710.502174, 122.6966)"><g><path d="M 10.140625 0 L 10.140625 -20.296875 L 30.4375 -20.296875 L 30.4375 -81.171875 L 10.140625 -81.171875 L 10.140625 -101.453125 L 71.015625 -101.453125 L 71.015625 -81.171875 L 50.734375 -81.171875 L 50.734375 -20.296875 L 71.015625 -20.296875 L 71.015625 0 Z M 10.140625 0 "/></g></g></g></g></g></svg>